<svg preserveAspectRatio="none" width="100%" height="100%" overflow="visible" style="display: block;" viewBox="0 0 17.8033 17.8033" fill="none" xmlns="http://www.w3.org/2000/svg">
<g id="visual-studio-code-svgrepo-com 1" clip-path="url(#clip0_3625_124930)">
<path id="Vector" d="M17.1712 1.91856L13.5087 0.156596C13.0825 -0.0492544 12.5757 0.0375365 12.2424 0.370791L5.22741 6.77162L2.17026 4.4533C1.88652 4.23577 1.4865 4.25357 1.22279 4.49391L0.243614 5.3863C-0.0807394 5.67894 -0.0807394 6.18912 0.240832 6.48176L2.8924 8.90133L0.240832 11.3209C-0.0807394 11.6135 -0.0807394 12.1237 0.243614 12.4164L1.22279 13.3087C1.48928 13.5491 1.88652 13.5669 2.17026 13.3494L5.22741 11.0283L12.2458 17.4319C12.5763 17.7651 13.0831 17.8519 13.5093 17.6461L17.1751 15.8813C17.5606 15.6961 17.8037 15.3077 17.8037 14.8788V2.91999C17.8037 2.49383 17.5573 2.10271 17.1723 1.91745L17.1712 1.91856ZM13.3546 12.9443L8.02864 8.90189L13.3546 4.85944V12.9443Z" fill="var(--fill-0, black)"/>
</g>
<defs>
<clipPath id="clip0_3625_124930">
<rect width="17.8033" height="17.8033" fill="white"/>
</clipPath>
</defs>
</svg>
